<?xml version="1.0" encoding="UTF-8"?>
<svg id="Layer_2" data-name="Layer 2" xmlns="http://www.w3.org/2000/svg" viewBox="0 0 1677.79 1677.79">
  <defs>
    <style>
      .cls-1 {
        fill-rule: evenodd;
      }

      .cls-1, .cls-2 {
        fill: #fff;
      }

      .cls-3 {
        fill: #e1723f;
      }
    </style>
  </defs>
  <g id="Layer_1-2" data-name="Layer 1">
    <g>
      <circle class="cls-3" cx="838.9" cy="838.9" r="838.9"/>
      <g>
        <path class="cls-2" d="M719.11,705.2h164.72c12.45,0,24.79,2.45,36.29,7.2,11.51,4.75,21.96,11.72,30.77,20.5,8.81,8.78,15.79,19.21,20.56,30.69,4.77,11.48,7.22,23.77,7.22,36.2s-2.45,24.72-7.22,36.2c-4.77,11.48-11.75,21.9-20.56,30.69-7.89,7.87-17.11,14.29-27.22,18.95l30.42,93.38h-60.41l-27.57-84.63h-9.47l27.57,84.63h-10.5l-27.57-84.63h-37.18v-59.74h74.87c4.59,0,9.13-.9,13.37-2.65,4.24-1.75,8.09-4.32,11.34-7.55,3.24-3.24,5.82-7.08,7.57-11.31,1.76-4.23,2.66-8.76,2.66-13.34s-.9-9.11-2.66-13.34c-1.76-4.23-4.33-8.07-7.57-11.31-3.24-3.24-7.1-5.8-11.34-7.55-4.24-1.75-8.78-2.65-13.37-2.65h-104.82v214.06h-59.9v-273.8Z"/>
        <path class="cls-1" d="M788.99,774.9v204.1h9.98v-194.15h84.85c7.61.45,13.71,5.9,14.76,12.45,1.28,8.01-5.19,16.58-14.76,17.42h-74.87v9.96h74.87c3.28,0,6.52-.64,9.55-1.89,3.03-1.25,5.78-3.08,8.1-5.4,2.32-2.31,4.16-5.06,5.41-8.08,1.25-3.02,1.9-6.26,1.9-9.53s-.65-6.51-1.9-9.53c-1.25-3.02-3.09-5.76-5.41-8.08-2.32-2.31-5.07-4.14-8.1-5.4-3.03-1.25-6.27-1.89-9.55-1.89h-94.84Z"/>
        <rect class="cls-2" x="1318.07" y="704.49" width="9.98" height="273.8"/>
        <rect class="cls-2" x="1338.05" y="704.49" width="9.98" height="273.8"/>
        <rect class="cls-2" x="1358" y="704.49" width="9.98" height="273.8"/>
        <rect class="cls-2" x="1377.97" y="704.49" width="9.98" height="273.8"/>
        <rect class="cls-2" x="1387.95" y="704.49" width="129.78" height="9.96"/>
        <rect class="cls-2" x="1387.95" y="724.41" width="129.78" height="9.96"/>
        <rect class="cls-2" x="1387.95" y="744.32" width="129.78" height="9.96"/>
        <rect class="cls-2" x="1387.95" y="928.51" width="129.78" height="9.96"/>
        <rect class="cls-2" x="1387.95" y="948.42" width="129.78" height="9.96"/>
        <rect class="cls-2" x="1387.95" y="968.33" width="129.78" height="9.96"/>
        <rect class="cls-2" x="1387.95" y="814.01" width="79.86" height="9.96"/>
        <rect class="cls-2" x="1387.95" y="833.92" width="79.86" height="9.96"/>
        <rect class="cls-2" x="1387.95" y="853.84" width="79.86" height="9.96"/>
        <polygon class="cls-2" points="160.06 704.49 369.7 704.49 369.7 779.16 249.91 779.16 249.91 828.94 329.77 828.94 329.77 903.61 249.91 903.61 249.91 978.29 160.06 978.29 160.06 704.49"/>
        <path class="cls-2" d="M539.41,764.23c-41.35,0-74.87,33.43-74.87,74.67,0,41.24,33.52,74.67,74.87,74.67,41.35,0,74.87-33.43,74.87-74.67,0-41.24-33.52-74.67-74.87-74.67ZM539.41,689.55c82.7,0,149.74,66.86,149.74,149.34,0,82.48-67.04,149.34-149.74,149.34-82.7,0-149.74-66.86-149.74-149.34,0-82.48,67.04-149.34,149.74-149.34Z"/>
        <path class="cls-2" d="M1039.98,936.45c21.58,24.94,50.82,42.07,83.17,48.72,30.34,6.23,61.81,2.92,90.11-9.4v2.51h9.98v-7.3c3.08-1.62,6.09-3.34,9.03-5.16l.95-.56v13.02h9.98v-19.91c3.45-2.58,6.78-5.3,9.98-8.16v28.07h34.94v-144.37h-34.94v54.6l-9.98-4.96v-49.63h-9.98v44.67l-4.99-2.48-4.99-2.48v-39.71h-9.98v49.78c-6.31,8.39-14.36,15.42-23.68,20.55-14.46,7.97-31.15,10.94-47.47,8.47-16.33-2.48-31.38-10.27-42.8-22.16-11.43-11.89-18.59-27.22-20.37-43.6-1.78-16.37,1.91-32.88,10.51-46.94,8.6-14.06,21.62-24.9,37.03-30.81,15.41-5.92,32.36-6.58,48.19-1.9,15.83,4.69,29.67,14.46,39.35,27.8l8.09-5.84c-10.98-15.12-26.66-26.2-44.6-31.51-17.94-5.31-37.15-4.55-54.61,2.15-17.47,6.71-32.22,18.98-41.97,34.92-9.74,15.94-13.93,34.64-11.91,53.2,2.02,18.56,10.14,35.93,23.09,49.41,12.95,13.48,30,22.31,48.51,25.12,18.5,2.81,37.42-.57,53.8-9.59,11.57-6.38,21.42-15.33,28.84-26.06v-13.28s4.99,2.48,4.99,2.48l4.99,2.48v11.32c-8.46,13.18-20.12,24.13-33.99,31.77-18.31,10.09-39.45,13.86-60.13,10.72-20.68-3.14-39.74-13.01-54.21-28.07-14.47-15.06-23.54-34.48-25.8-55.22-2.26-20.74,2.42-41.65,13.31-59.46,10.89-17.81,27.38-31.53,46.91-39.03,19.52-7.49,40.98-8.34,61.04-2.41,20.06,5.93,37.58,18.32,49.85,35.22l8.09-5.84c-13.56-18.68-32.93-32.36-55.09-38.92-22.17-6.56-45.89-5.62-67.46,2.66-21.58,8.28-39.81,23.45-51.84,43.14-12.04,19.69-17.21,42.79-14.71,65.72,2.5,22.92,12.52,44.38,28.52,61.03,16,16.65,37.06,27.56,59.92,31.03,22.86,3.47,46.23-.7,66.46-11.85,16.21-8.94,29.69-21.95,39.15-37.65v-9.19l9.98,4.96v6.92c-9.44,16.58-22.88,30.53-39.05,40.59l-4.09,2.42h0c-2.12,1.21-4.28,2.35-6.49,3.42-22.77,11.05-48.57,14.27-73.37,9.18-24.8-5.1-47.22-18.23-63.76-37.35-16.54-19.12-26.28-43.16-27.7-68.38-1.42-25.22,5.56-50.19,19.86-71.04,14.29-20.85,35.1-36.4,59.17-44.23,24.08-7.83,50.07-7.5,73.94.94,23.87,8.44,44.27,24.51,58.03,45.71l29.33-18.93c-17.95-27.66-44.56-48.62-75.69-59.62-31.13-11-65.04-11.43-96.44-1.22-31.4,10.21-58.54,30.49-77.18,57.69-18.64,27.19-27.75,59.77-25.9,92.66,1.85,32.89,14.55,64.25,36.13,89.19Z"/>
      </g>
    </g>
  </g>
</svg>