<svg width="98" height="50" viewBox="0 0 98 50" fill="none" xmlns="http://www.w3.org/2000/svg">
<g clip-path="url(#clip0_7531_76237)">
<mask id="mask0_7531_76237" style="mask-type:luminance" maskUnits="userSpaceOnUse" x="0" y="0" width="98" height="50">
<path d="M0 0H97.147V50H0V0Z" fill="white"/>
</mask>
<g mask="url(#mask0_7531_76237)">
<path d="M29.477 40.133C29.577 40.331 29.627 40.55 29.624 40.772C29.6283 40.997 29.5778 41.2197 29.477 41.421C29.381 41.601 29.236 41.749 29.058 41.848C28.853 41.957 28.624 42.011 28.392 42.005H27.032V39.539H28.392C28.6234 39.5328 28.8524 39.5877 29.056 39.698C29.2335 39.8013 29.3791 39.9525 29.477 40.133ZM10.445 39.578H10.245L9.258 42.441H11.458L10.445 39.578ZM10.445 39.578H10.245L9.258 42.441H11.458L10.445 39.578ZM10.445 39.578H10.245L9.258 42.441H11.458L10.445 39.578ZM10.445 39.578H10.245L9.258 42.441H11.458L10.445 39.578ZM10.445 39.578H10.245L9.258 42.441H11.458L10.445 39.578ZM81.699 39.578H81.499L80.513 42.441H82.719L81.699 39.578ZM81.699 39.578H81.499L80.513 42.441H82.719L81.699 39.578ZM10.445 39.578H10.245L9.258 42.441H11.458L10.445 39.578ZM0 50H92.046V33.914H0V50ZM12.6 45.655L11.89 43.655H8.836L8.149 45.655H6.762L9.318 38.371H11.394L14.029 45.655H12.6ZM30.048 45.655L28.27 43.194H27.032V45.655H25.66V38.323H28.236C28.7325 38.3131 29.2263 38.3993 29.69 38.577C30.0875 38.7324 30.4285 39.0047 30.668 39.358C30.9138 39.7564 31.035 40.2192 31.016 40.687V40.841C31.034 41.309 30.911 41.771 30.664 42.169C30.423 42.52 30.082 42.79 29.685 42.944L31.704 45.655H30.048ZM47.733 45.655H43.252V38.371H47.652V39.588H44.616V41.345H47.465V42.564H44.616V44.437H47.737L47.733 45.655ZM66.382 45.655H64.3L61.055 39.655V45.655H59.755V38.371H61.823L65.068 44.371V38.371H66.382V45.655ZM83.855 45.655L83.145 43.655H80.09L79.403 45.655H78.018L80.572 38.371H82.648L85.283 45.655H83.855ZM81.499 39.578L80.513 42.441H82.719L81.699 39.578H81.499ZM10.246 39.578L9.258 42.441H11.458L10.443 39.578H10.246ZM10.446 39.578H10.246L9.258 42.441H11.458L10.446 39.578ZM10.446 39.578H10.246L9.258 42.441H11.458L10.446 39.578ZM10.446 39.578H10.246L9.258 42.441H11.458L10.446 39.578ZM10.446 39.578H10.246L9.258 42.441H11.458L10.446 39.578ZM32.493 20.92V0.387986H23.911V28.588H43.489V20.92H32.493ZM88.061 0.387986L83.072 8.84099L78.272 0.385986H68.948L78.685 17.872V28.586H87.27V17.827L97.147 0.386986L88.061 0.387986Z" fill="black"/>
<path d="M9.408 0.152954L0 0.387954V28.588H8.585V20.061L9.88 20.109C18.228 20.109 21.745 15.157 21.745 9.78395C21.745 4.15095 17.71 0.153954 9.409 0.153954M9.314 13.334C9.07022 13.3358 8.82661 13.3205 8.585 13.288V6.78795C8.897 6.75295 9.212 6.73695 9.526 6.73895C12.865 6.73895 14.371 7.76295 14.371 10.068C14.371 12.996 11.82 13.336 9.314 13.336" fill="black"/>
<path d="M66.9006 5.491C64.7046 3.358 62.2466 1.513 59.5856 0L54.9166 5.7C57.1937 6.56028 59.2798 7.85917 61.0566 9.523C63.0906 11.557 63.4426 12.674 62.4566 13.65L62.0666 14.037C57.0566 9.031 50.6466 6.479 45.9206 11.2C43.0866 14.034 42.6276 17.858 46.1316 21.36C48.3416 23.56 51.3186 24.581 53.7986 23.771L53.8336 23.807C52.9928 24.425 52.2096 25.1178 51.4936 25.877L54.1856 28.577H60.4196C60.6196 28.365 60.8296 28.167 61.0196 27.966L68.7586 20.24C73.0256 15.96 73.3796 11.961 66.9006 5.482M57.6686 19.006C56.9926 19.712 56.0626 20.118 55.0856 20.133C54.1086 20.148 53.1666 19.772 52.4686 19.088C52.2569 18.9262 52.0819 18.7212 51.9554 18.4867C51.8289 18.2522 51.7537 17.9934 51.7348 17.7276C51.7159 17.4618 51.7537 17.195 51.8457 16.9449C51.9377 16.6948 52.0819 16.4671 52.2686 16.277C53.5276 15.031 55.1026 15.067 58.3606 18.313L57.6686 19.006Z" fill="#007BFE"/>
</g>
<mask id="mask1_7531_76237" style="mask-type:luminance" maskUnits="userSpaceOnUse" x="0" y="0" width="98" height="50">
<path d="M0 0H97.148V50H0V0Z" fill="white"/>
</mask>
<g mask="url(#mask1_7531_76237)">
<path d="M29.478 40.132C29.578 40.3299 29.6285 40.5492 29.625 40.771C29.6293 40.996 29.5789 41.2187 29.478 41.42C29.382 41.6 29.237 41.748 29.059 41.847C28.854 41.956 28.625 42.01 28.393 42.004H27.033V39.538H28.393C28.6245 39.5318 28.8535 39.5867 29.057 39.697C29.2348 39.7999 29.3806 39.9511 29.478 40.132ZM10.446 39.577H10.246L9.25905 42.44H11.459L10.446 39.577ZM10.446 39.577H10.246L9.25905 42.44H11.459L10.446 39.577ZM10.446 39.577H10.246L9.25905 42.44H11.459L10.446 39.577ZM10.446 39.577H10.246L9.25905 42.44H11.459L10.446 39.577ZM10.446 39.577H10.246L9.25905 42.44H11.459L10.446 39.577ZM81.7 39.577H81.5L80.514 42.44H82.718L81.7 39.577ZM81.7 39.577H81.5L80.514 42.44H82.718L81.7 39.577ZM10.446 39.577H10.246L9.25905 42.44H11.459L10.446 39.577ZM-0.00195312 49.999H92.047V33.913H-0.00195312V49.999ZM12.598 45.654L11.888 43.654H8.83705L8.15005 45.654H6.76305L9.31905 38.37H11.398L14.033 45.654H12.598ZM30.046 45.654L28.268 43.193H27.033V45.654H25.661V38.322H28.237C28.7336 38.3121 29.2273 38.3983 29.691 38.576C30.0885 38.7314 30.4295 39.0037 30.669 39.357C30.9148 39.7554 31.036 40.2182 31.017 40.686V40.84C31.035 41.308 30.912 41.77 30.665 42.168C30.424 42.519 30.083 42.789 29.686 42.943L31.705 45.654H30.046ZM47.731 45.654H43.253V38.37H47.653V39.587H44.617V41.344H47.466V42.563H44.617V44.436H47.738L47.731 45.654ZM66.38 45.654H64.298L61.053 39.654V45.654H59.753V38.37H61.821L65.066 44.37V38.37H66.38V45.654ZM83.853 45.654L83.143 43.654H80.091L79.404 45.654H78.019L80.573 38.37H82.649L85.284 45.654H83.853ZM81.498 39.577L80.512 42.44H82.718L81.698 39.577H81.498ZM10.244 39.577L9.25705 42.44H11.457L10.441 39.577H10.244ZM10.444 39.577H10.244L9.25705 42.44H11.457L10.444 39.577ZM10.444 39.577H10.244L9.25705 42.44H11.457L10.444 39.577ZM10.444 39.577H10.244L9.25705 42.44H11.457L10.444 39.577ZM10.444 39.577H10.244L9.25705 42.44H11.457L10.444 39.577ZM32.494 20.919V0.386986H23.911V28.587H43.49V20.919H32.494ZM88.059 0.387986L83.072 8.84099L78.272 0.385986H68.949L78.686 17.872V28.586H87.271V17.827L97.148 0.386986L88.059 0.387986Z" fill="black"/>
<path d="M9.40905 0.151978L-0.00195312 0.386978V28.587H8.58505V20.06L9.88005 20.108C18.228 20.108 21.745 15.156 21.745 9.78298C21.745 4.14998 17.711 0.152978 9.40905 0.152978M9.31505 13.333C9.07105 13.335 8.82805 13.319 8.58605 13.287V6.78698C8.89847 6.75208 9.21269 6.73571 9.52705 6.73798C12.866 6.73798 14.373 7.76198 14.373 10.067C14.373 12.995 11.821 13.335 9.31605 13.335" fill="black"/>
<path d="M66.9025 5.491C64.7065 3.358 62.2485 1.513 59.5875 0L54.9185 5.7C57.1956 6.56028 59.2817 7.85917 61.0585 9.523C63.0925 11.557 63.4445 12.674 62.4585 13.65L62.0685 14.037C57.0595 9.028 50.6515 6.477 45.9235 11.203C43.0895 14.037 42.6305 17.861 46.1345 21.363C48.3445 23.563 51.3215 24.584 53.8015 23.774L53.8365 23.81C52.9957 24.428 52.2125 25.1208 51.4965 25.88L54.1885 28.58H60.4225C60.6225 28.368 60.8325 28.17 61.0225 27.969L68.7615 20.243C73.0285 15.963 73.3825 11.964 66.9035 5.485M57.6715 19.009C56.9955 19.715 56.0655 20.121 55.0885 20.136C54.1115 20.151 53.1695 19.775 52.4715 19.091C52.2598 18.9292 52.0848 18.7242 51.9583 18.4897C51.8318 18.2552 51.7566 17.9964 51.7377 17.7306C51.7188 17.4648 51.7566 17.198 51.8486 16.9479C51.9407 16.6978 52.0848 16.4701 52.2715 16.28C53.5305 15.034 55.1055 15.07 58.3635 18.316L57.6715 19.009Z" fill="#007BFE"/>
</g>
</g>
<defs>
<clipPath id="clip0_7531_76237">
<rect width="97.148" height="50" fill="white"/>
</clipPath>
</defs>
</svg>
